<svg height="639pt" viewBox="-19 -19 639 639.99991" width="639pt" xmlns="http://www.w3.org/2000/svg"><path d="m540.5 330v-20c5.519531 0 10-4.476562 10-10v-60c0-5.523438-4.480469-10-10-10h-54l-1.9375-7.511719c-4.421875-17.179687-11.289062-33.636719-20.402344-48.859375l-4-6.691406 38.339844-38.40625c3.859375-3.867188 3.859375-10.132812 0-14l-42.46875-42.53125c-3.921875-3.738281-10.082031-3.738281-14.003906 0l-38.410156 38.410156-6.6875-4c-15.246094-9.117187-31.71875-15.984375-48.921876-20.410156l-7.507812-1.953125v-54.046875c0-5.523438-4.476562-10-10-10h-60c-5.523438 0-10 4.476562-10 10v54l-7.511719 1.941406c-17.179687 4.417969-33.636719 11.285156-48.867187 20.386719l-6.691406 4.003906-38.398438-38.332031c-3.925781-3.769531-10.125-3.769531-14.050781 0l-42.480469 42.46875c-1.867188 1.863281-2.917969 4.394531-2.917969 7.03125 0 2.640625 1.050781 5.167969 2.917969 7.03125l38.410156 38.40625-4 6.691406c-9.109375 15.222656-15.980468 31.679688-20.398437 48.859375l-1.960938 7.511719h-54.050781c-5.523438 0-10 4.476562-10 10v60c0 5.523438 4.476562 10 10 10v20c-16.566406 0-30-13.433594-30-30v-60c0-16.566406 13.433594-30 30-30h38.691406c4.125-13.828125 9.703125-27.179688 16.640625-39.828125l-27.5-27.5c-5.625-5.613281-8.785156-13.230469-8.785156-21.171875s3.160156-15.558594 8.785156-21.167969l42.5-42.5c11.839844-11.332031 30.507813-11.332031 42.347657 0l27.492187 27.488281c12.648437-6.933593 26.003906-12.5 39.828125-16.621093v-38.699219c0-16.566406 13.433594-30 30-30h60c16.566406 0 30 13.433594 30 30v38.699219c13.828125 4.121093 27.175781 9.699219 39.828125 16.632812l27.5-27.5c11.84375-11.332031 30.507813-11.332031 42.351563 0l42.492187 42.488281c5.621094 5.613282 8.777344 13.222657 8.777344 21.167969 0 7.945313-3.15625 15.5625-8.777344 21.171875l-27.5 27.5c6.933594 12.65625 12.507813 26.011719 16.636719 39.839844h38.691406c16.566406 0 30 13.433594 30 30v60c0 16.566406-13.433594 30-30 30zm0 0"/><path d="m440.5 270h-20c0-66.273438-53.726562-120-120-120s-120 53.726562-120 120h-20c0-77.320312 62.679688-140 140-140 77.316406 0 140 62.679688 140 140zm0 0"/><path d="m300.5 350c-33.136719 0-60-26.867188-60-60 0-33.136719 26.863281-60 60-60 33.140625 0 60 26.863281 60 60-.035156 33.125-26.875 59.964844-60 60zm0-100c-22.089844 0-40 17.910156-40 40s17.910156 40 40 40 40-17.910156 40-40-17.910156-40-40-40zm0 0"/><path d="m470.5 390c-33.136719 0-60-26.867188-60-60 0-33.136719 26.863281-60 60-60s60 26.863281 60 60c-.035156 33.125-26.875 59.964844-60 60zm0-100c-22.089844 0-40 17.910156-40 40s17.910156 40 40 40 40-17.910156 40-40-17.910156-40-40-40zm0 0"/><path d="m130.5 390c-33.136719 0-60-26.867188-60-60 0-33.136719 26.863281-60 60-60 33.140625 0 60 26.863281 60 60-.035156 33.125-26.875 59.964844-60 60zm0-100c-22.089844 0-40 17.910156-40 40s17.910156 40 40 40 40-17.910156 40-40-17.910156-40-40-40zm0 0"/><path d="m561.15625 415.65625c-14.902344-10.242188-32.570312-15.707031-50.65625-15.65625h-80c-4.863281.042969-9.71875.484375-14.511719 1.316406-6.398437-10.007812-14.722656-18.640625-24.488281-25.410156-1.464844-1.105469-3.003906-2.109375-4.609375-2.996094-13.988281-8.472656-30.039063-12.933594-46.390625-12.910156h-80c-30.582031-.109375-59.078125 15.496094-75.460938 41.316406-4.804687-.832031-9.667968-1.273437-14.539062-1.316406h-80c-18.070312-.050781-35.734375 5.40625-50.628906 15.636719-24.617188 16.75-39.355469 44.589843-39.371094 74.363281v40c.035156 27.304688 15.921875 52.101562 40.722656 63.539062 9.15625 4.3125 19.160156 6.519532 29.277344 6.460938h100v-20h-90v-110h-20v108.996094c-3.765625-.753906-7.421875-1.972656-10.890625-3.617188-17.714844-8.167968-29.070313-25.875-29.109375-45.378906v-40c.023438-23.171875 11.503906-44.832031 30.660156-57.863281 11.574219-7.945313 25.296875-12.175781 39.339844-12.136719h80c1.761719 0 3.460938.1875 5.179688.304688-3.382813 9.539062-5.136719 19.578124-5.179688 29.695312v100c.035156 27.601562 22.402344 49.964844 50 50h30v-160h-20v140h-10c-16.566406 0-30-13.433594-30-30v-100c0-38.664062 31.34375-70 70-70h80c12.867188.007812 25.476562 3.570312 36.449219 10.289062 1.015625.554688 1.992187 1.179688 2.917969 1.867188 9.371093 6.417969 17.0625 14.992188 22.421874 25 5.386719 10.109375 8.210938 21.386719 8.210938 32.84375v100c0 16.566406-13.433594 30-30 30h-10v-140h-20v160h30c27.601562-.035156 49.964844-22.398438 50-50v-100c-.046875-10.117188-1.792969-20.152344-5.171875-29.695312 1.722656-.117188 3.421875-.304688 5.171875-.304688h80c14.050781-.039062 27.785156 4.203125 39.367188 12.15625 19.140624 13.039062 30.605468 34.683594 30.632812 57.84375v40c-.035156 19.574219-11.476562 37.332031-29.277344 45.457031-3.417968 1.617188-7.019531 2.804688-10.722656 3.539063v-108.996094h-20v110h-90v20h100c10.058594.0625 20.003906-2.117188 29.109375-6.382812 24.882813-11.402344 40.851563-36.246094 40.890625-63.617188v-40c-.015625-29.761719-14.742188-57.589844-39.34375-74.34375zm0 0"/><path d="m260.5 580h80v20h-80zm0 0"/></svg>