<svg height="423.92pt" viewBox="0 0 423.92 423.92" width="423.92pt" xmlns="http://www.w3.org/2000/svg"><path d="m132.050781 320.851562c50.390625 36.988282 119.578125 34.566407 167.257813-5.851562 47.683594-40.421875 61.398437-108.277344 33.160156-164.042969s-91.054688-84.871093-151.855469-70.355469c-60.800781 14.511719-103.699219 68.851563-103.703125 131.359376-.113281 43.03125 20.386719 83.511718 55.140625 108.890624zm291.871094-60.53125-22.640625 58.648438-34.980469-1.027344c-11.121093 16.671875-25.046875 31.292969-41.160156 43.207032l2.570313 34.992187-57.621094 25.199219-24.167969-25.199219c-19.695313 3.601563-39.828125 4.121094-59.683594 1.539063l-22.636719 26.242187-58.640624-22.640625 1.027343-34.980469c-16.675781-11.121093-31.296875-25.046875-43.21875-41.160156l-34.980469 2.570313-25.210937-57.621094 25.203125-24.167969c-3.601562-19.695313-4.121094-39.828125-1.542969-59.683594l-26.238281-22.636719 22.640625-58.652343 34.980469 1.03125c11.121094-16.675781 25.046875-31.292969 41.160156-43.210938l-2.570312-34.988281 57.617187-25.203125 24.171875 25.203125c19.695312-3.601562 39.832031-4.121094 59.691406-1.542969l22.628906-26.238281 58.648438 22.640625-1.027344 34.980469c16.675782 11.117187 31.296875 25.046875 43.21875 41.160156l34.980469-2.570312 25.210937 57.617187-25.210937 24.171875c3.601563 19.695312 4.121094 39.828125 1.539063 59.679688zm0 0" fill="#00efd1"/><path d="m211.960938 76.910156c58.339843.007813 110.082031 37.472656 128.296874 92.894532 18.214844 55.425781-1.214843 116.28125-48.179687 150.894531l-.207031-.289063v-53.910156c-.003906-21.269531-17.238282-38.519531-38.511719-38.53125-9.679687 13.175781-25.050781 20.957031-41.398437 20.957031-16.347657 0-31.722657-7.78125-41.402344-20.957031-21.269532.011719-38.507813 17.261719-38.507813 38.53125v54.351562c-47.070312-34.554687-66.605469-95.4375-48.429687-150.925781 18.175781-55.484375 69.949218-93.011719 128.339844-93.015625zm42.808593 90.960938c0-23.644532-19.167969-42.8125-42.808593-42.8125-23.644532 0-42.8125 19.167968-42.8125 42.8125 0 23.640625 19.167968 42.808594 42.8125 42.808594 23.640624 0 42.808593-19.167969 42.808593-42.808594zm0 0" fill="#00acea"/><g fill="#fedb41"><path d="m291.871094 320.410156.207031.289063c-47.574219 35.023437-112.386719 35.085937-160.027344.152343v-54.351562c0-21.269531 17.238281-38.519531 38.507813-38.53125 9.679687 13.175781 25.054687 20.957031 41.402344 20.957031 16.347656 0 31.71875-7.78125 41.398437-20.957031 21.273437.011719 38.507813 17.261719 38.511719 38.53125zm0 0"/><path d="m254.769531 167.871094c0 23.640625-19.167969 42.808594-42.808593 42.808594-23.644532 0-42.8125-19.167969-42.8125-42.808594 0-23.644532 19.167968-42.8125 42.8125-42.8125 23.640624 0 42.808593 19.167968 42.808593 42.8125zm0 0"/></g></svg>