<?xml version="1.0" encoding="iso-8859-1"?>
<!-- Generator: Adobe Illustrator 19.0.0, SVG Export Plug-In . SVG Version: 6.00 Build 0)  -->
<svg version="1.1" id="Capa_1" xmlns="http://www.w3.org/2000/svg" xmlns:xlink="http://www.w3.org/1999/xlink" x="0px" y="0px"
	 viewBox="0 0 512 512" style="enable-background:new 0 0 512 512;" xml:space="preserve">
<circle style="fill:#D4F582;" cx="363.42" cy="132.13" r="132.13"/>
<path style="fill:#BEE86E;" d="M392.325,235.355c-72.973,0-132.129-59.156-132.129-132.129c0-29.106,9.524-55.924,25.469-77.757
	c-32.906,24.032-54.372,62.793-54.372,106.66c0,72.973,59.156,132.129,132.129,132.129c43.867,0,82.629-21.466,106.66-54.372
	C448.249,225.831,421.431,235.355,392.325,235.355z"/>
<path style="fill:#FFFFFF;" d="M430.213,119.742h-55.437V65.239c0-4.105-3.697-7.432-8.258-7.432h-8.258
	c-4.561,0-8.258,3.327-8.258,7.432v54.503h-54.405c-4.159,0-7.531,3.697-7.531,8.258v8.258c0,4.56,3.372,8.258,7.531,8.258h54.405
	v54.503c0,4.104,3.697,7.432,8.258,7.432h8.258c4.561,0,8.258-3.328,8.258-7.432v-54.503h55.437c4.159,0,7.531-3.698,7.531-8.258
	V128C437.744,123.439,434.373,119.742,430.213,119.742z"/>
<path style="fill:#BEE86E;" d="M306.46,310.58l-47.055-18.512H92.38L45.325,310.58c-18.043,7.098-29.615,24.839-28.839,44.212
	l5.713,142.631C22.525,505.567,29.221,512,37.371,512h277.043c8.15,0,14.846-6.433,15.172-14.577l5.713-142.631
	C336.075,335.419,324.503,317.678,306.46,310.58z"/>
<polygon style="fill:#EDEBED;" points="164.806,344.974 155.093,512 196.692,512 186.979,344.974 "/>
<path style="fill:#FFFFFF;" d="M182.819,352.566h-13.852c-4.561,0-8.258-3.697-8.258-8.258v-22.11h30.368v22.11
	C191.077,348.869,187.379,352.566,182.819,352.566z"/>
<rect x="122.75" y="231.09" style="fill:#E6AF78;" width="106.29" height="91.11"/>
<path style="fill:#D29B6E;" d="M122.748,259.443c15.056,10.843,33.443,17.202,53.145,17.202s38.088-6.359,53.145-17.202v-28.35
	h-106.29V259.443z"/>
<path style="fill:#5C414B;" d="M175.892,41.529c-37.905,2.049-59.471,22.776-59.471,22.776s-31.634,0-31.634,37.96
	c0,30.368,7.592,60.498,7.592,60.498h174.618C282.182,79.251,246.119,37.733,175.892,41.529z"/>
<path style="fill:#503441;" d="M130.34,131.434c-27.89-34.87-13.919-67.129-13.919-67.129s-31.634,0-31.634,37.96
	c0,30.368,7.592,60.498,7.592,60.498h37.96v-31.329H130.34z"/>
<path style="fill:#F0C087;" d="M259.405,155.172h-7.592l-10.004-18.258c-1.58-2.883-4.869-4.36-8.103-3.768
	c-50.001,9.146-82.861-2.476-95.312-8.294c-3.262-1.524-7.145-0.522-9.241,2.405c-7.683,10.731-16.161,19.189-21.245,23.869
	c-2.822,2.599-6.486,4.044-10.323,4.044h-5.463c-0.004,0-0.007,0.002-0.012,0.002c-0.832,0.015-1.682,0.103-2.547,0.27
	c-7.389,1.428-12.368,8.492-12.368,16.017v5.502c0,7.262,4.65,14.112,11.721,15.763c1.593,0.372,3.143,0.477,4.627,0.359
	c3.775-0.301,7.07,2.446,7.75,6.171c6.454,35.374,37.36,62.204,74.599,62.204s68.144-26.83,74.599-62.204
	c0.655-3.588,3.752-6.201,7.35-6.125h1.564c8.386,0,15.184-6.798,15.184-15.184v-7.592
	C274.59,161.97,267.791,155.172,259.405,155.172z"/>
<path style="fill:#E6AF78;" d="M130.34,185.54v-59.441c-0.413,0.365-0.854,0.694-1.187,1.159
	c-7.683,10.731-16.161,19.189-21.245,23.869c-2.822,2.599-6.486,4.044-10.323,4.044h-5.463c-0.004,0-0.007,0.002-0.012,0.002
	c-0.832,0.015-1.682,0.103-2.547,0.27c-7.389,1.428-12.368,8.492-12.368,16.017v5.502c0,7.262,4.65,14.112,11.721,15.763
	c1.593,0.372,3.143,0.477,4.627,0.359c3.775-0.301,7.07,2.446,7.75,6.171c6.454,35.374,37.36,62.204,74.599,62.204
	c5.162,0,10.184-0.563,15.054-1.546C156.358,252.831,130.34,222.224,130.34,185.54z"/>
<g>
	<path style="fill:#D4F582;" d="M175.892,322.436l-55.391-48.467c-3.008-2.632-7.542-2.481-10.368,0.345L92.38,292.068
		l35.279,52.918c5.315,7.973,16.595,9.09,23.371,2.314L175.892,322.436z"/>
	<path style="fill:#D4F582;" d="M175.892,322.436l55.391-48.467c3.008-2.632,7.542-2.481,10.368,0.345l17.754,17.754l-35.279,52.918
		c-5.315,7.973-16.595,9.09-23.371,2.314L175.892,322.436z"/>
	<path style="fill:#D4F582;" d="M295.525,362.238l33.03-33.03c4.608,7.519,7.115,16.346,6.745,25.584l-5.713,142.631
		c-0.326,8.143-7.023,14.577-15.172,14.577h-32.233V394.449C282.182,382.368,286.982,370.781,295.525,362.238z"/>
	<path style="fill:#D4F582;" d="M56.26,362.238l-33.03-33.03c-4.608,7.519-7.115,16.346-6.745,25.584l5.713,142.631
		C22.524,505.566,29.22,512,37.37,512h32.233V394.449C69.602,382.368,64.803,370.781,56.26,362.238z"/>
	<path style="fill:#D4F582;" d="M100.638,413.303h36.628c4.561,0,8.258-3.697,8.258-8.258v-6.26c0-4.561-3.697-8.258-8.258-8.258
		h-36.628c-4.561,0-8.258,3.697-8.258,8.258v6.26C92.38,409.606,96.077,413.303,100.638,413.303z"/>
</g>
<g>
</g>
<g>
</g>
<g>
</g>
<g>
</g>
<g>
</g>
<g>
</g>
<g>
</g>
<g>
</g>
<g>
</g>
<g>
</g>
<g>
</g>
<g>
</g>
<g>
</g>
<g>
</g>
<g>
</g>
</svg>
