<svg id="Capa_1" enable-background="new 0 0 512 512" height="512" viewBox="0 0 512 512" width="512" xmlns="http://www.w3.org/2000/svg"><g><g><path d="m172.427 426.802 14.779 5h204.259l15.306-3.09v-321.902h-224.044c-5.689 0-10.301 4.612-10.301 10.301v309.691z" fill="#365e7d"/></g><g><path d="m352.301 106.81v324.991h39.164l15.305-3.09v-321.901z" fill="#2b4d66"/></g><g><path d="m163.531 80.199h243.239v33.968h-219.564v317.635h-23.675c-5.685 0-10.293-4.608-10.293-10.293v-331.017c0-5.685 4.608-10.293 10.293-10.293z" fill="#e4f6ff"/></g><g><path d="m169.748 101.855v307.341c0 2.842-2.304 5.147-5.147 5.147h-11.363v7.165c0 5.685 4.608 10.293 10.293 10.293h23.675v-317.634h219.564v-17.458h-231.875c-2.843 0-5.147 2.304-5.147 5.146z" fill="#d3effb"/></g><g><path d="m391.465 431.801h110.535c5.523 0 10-4.477 10-10v-331.602c0-5.523-4.477-10-10-10h-110.535z" fill="#f4fbff"/></g><g><path d="m391.465 431.801h110.535c5.523 0 10-4.477 10-10v-331.602c0-5.523-4.477-10-10-10h-110.535z" fill="#f4fbff"/></g><g><path d="m502.001 80.199h-34.963v351.603h34.963c5.522 0 9.999-4.477 9.999-9.999v-331.605c0-5.523-4.477-9.999-9.999-9.999z" fill="#e4f6ff"/></g><g><path d="m478.173 263.975h-24.382c-4.264 0-7.72-3.456-7.72-7.72s3.456-7.72 7.72-7.72h24.382c4.264 0 7.72 3.456 7.72 7.72s-3.456 7.72-7.72 7.72z" fill="#2b4d66"/></g><g><path d="m102.788 153.164c125.236 15.522 226.583 108.078 255.13 228.791 1.09 4.61-4.542 7.689-7.85 4.3-48.391-49.569-115.943-80.346-190.688-80.346-19.421 0-38.351 2.097-56.591 6.042v-158.787z" fill="#ffe07d"/></g><g><path d="m334.45 317.239c10.175 20.363 18.106 42.043 23.468 64.717 1.09 4.61-4.541 7.689-7.85 4.3-48.391-49.569-115.943-80.346-190.688-80.346-19.421 0-38.351 2.097-56.591 6.042v-54.274c18.241-3.945 37.17-6.042 56.591-6.042 67.018-.001 128.244 24.755 175.07 65.603z" fill="#ffd064"/></g><g><path d="m1.187 234.847 114.451-113.203c2.526-2.498 6.812-.709 6.812 2.844v226.405c0 3.553-4.286 5.342-6.812 2.844l-114.451-113.203c-1.583-1.565-1.583-4.122 0-5.687z" fill="#ffd064"/></g><g><path d="m115.638 121.644-45.433 44.938v142.218l45.433 44.938c2.526 2.498 6.812.709 6.812-2.844v-226.406c0-3.553-4.286-5.342-6.812-2.844z" fill="#ffc250"/></g><g><path d="m427.378 256.255c0 9.791 7.937 17.727 17.727 17.727 6.979 0 13.016-4.033 15.908-9.895 1.165-2.362-5.538-5.021-5.538-7.833 0-2.777 6.719-5.405 5.581-7.745-2.875-5.91-8.937-9.982-15.951-9.982-9.79.001-17.727 7.937-17.727 17.728z" fill="#365e7d"/></g><g><path d="m451.586 239.767c.79 2.009 1.239 4.19 1.239 6.48 0 9.79-7.937 17.727-17.727 17.727-2.29 0-4.471-.449-6.48-1.239 2.589 6.582 8.987 11.247 16.488 11.247 9.791 0 17.727-7.937 17.727-17.727 0-7.501-4.665-13.899-11.247-16.488z" fill="#2b4d66"/></g></g></svg>