<?xml version="1.0" encoding="UTF-8" standalone="no"?>
<svg
   xmlns:dc="http://purl.org/dc/elements/1.1/"
   xmlns:cc="http://creativecommons.org/ns#"
   xmlns:rdf="http://www.w3.org/1999/02/22-rdf-syntax-ns#"
   xmlns:svg="http://www.w3.org/2000/svg"
   xmlns="http://www.w3.org/2000/svg"
   id="SVGRoot"
   version="1.1"
   viewBox="0 0 600 250"
   height="250px"
   width="600px">
  <defs
     id="defs18" />
  <metadata
     id="metadata21">
    <rdf:RDF>
      <cc:Work
         rdf:about="">
        <dc:format>image/svg+xml</dc:format>
        <dc:type
           rdf:resource="http://purl.org/dc/dcmitype/StillImage" />
        <dc:title></dc:title>
      </cc:Work>
    </rdf:RDF>
  </metadata>
  <g
     id="layer1">
    <g
       id="g955">
      <g
         id="g118"
         transform="matrix(0.17144775,0,0,0.17144775,41.65625,78.374995)">
        <path
           id="path106"
           d="M 354.48,209 367.8,80.77 240.18,80.55 253.52,209 Z" />
        <path
           id="path108"
           d="M 338.02,367.4 351.36,239 h -94.72 l 13.34,128.4 z" />
        <path
           id="path110"
           d="m 368.18,367.4 h 96.56 C 491.68,367.4 512,347.02 512,320 V 239 H 381.52 Z" />
        <path
           id="path112"
           d="M 476.22,80.96 397.96,80.82 384.64,209 H 512 v -92.25 c 0,-19.7 -16.05,-35.76 -35.78,-35.79 z" />
        <path
           id="path114"
           d="M 84.422,30.719 C 99.769,115.235 93.125,75.602 114.03,209 H 223.36 L 210.01,80.5 123.925,80.352 113.939,25.359 C 111.271,10.665 98.495,0 83.562,0 H 15 C 6.716,0 0,6.716 0,15 c 0,8.284 6.716,15 15,15 72.603,0 69.22,-0.399 69.422,0.719 z" />
        <path
           id="path116"
           d="m 497,401.667 c -415.738,0 -397.149,0.077 -397.176,-0.138 -4.556,-36.484 -4.372,-34.148 -4.075,-34.194 45.894,-0.239 98.152,0.065 144.071,0.065 L 226.48,239 H 118.73 l 15.375,98.134 -38.491,0.2 c -18.023,0.069 -32.061,15.891 -29.809,33.898 l 4.252,34.017 c 1.882,15.06 14.747,26.417 29.925,26.417 H 126.6 c -18.801,36.505 7.827,80.334 49.067,80.334 41.22,0 67.875,-43.811 49.066,-80.333 H 367.6 c -18.801,36.504 7.827,80.333 49.067,80.333 41.22,0 67.875,-43.811 49.066,-80.333 H 497 c 8.284,0 15,-6.716 15,-15 0,-8.284 -6.716,-15 -15,-15 z" />
      </g>
      <rect
         style="opacity:1;vector-effect:none;fill:none;fill-opacity:1;fill-rule:evenodd;stroke:#000000;stroke-width:12.40759659;stroke-linecap:round;stroke-linejoin:bevel;stroke-miterlimit:4;stroke-dasharray:none;stroke-dashoffset:0;stroke-opacity:1;paint-order:stroke markers fill"
         id="rect134"
         width="564.26721"
         height="118.85638"
         x="17.866409"
         y="64.951714" />
      <text
         xml:space="preserve"
         style="font-style:normal;font-weight:normal;font-size:40px;line-height:1.25;font-family:sans-serif;letter-spacing:0px;word-spacing:0px;fill:#000000;fill-opacity:1;stroke:none;stroke-width:0.1;stroke-miterlimit:4;stroke-dasharray:none"
         x="147.65625"
         y="138.67188"
         id="text943"><tspan
           id="tspan941"
           x="147.65625"
           y="138.67188"
           style="font-style:normal;font-variant:normal;font-weight:normal;font-stretch:normal;font-size:53.33333206px;line-height:86.05000305;font-family:'Arial Black';-inkscape-font-specification:'Arial Black, '">FastShopping</tspan></text>
    </g>
  </g>
</svg>
