<svg id="Capa_1" enable-background="new 0 0 512 512" height="512" viewBox="0 0 512 512" width="512" xmlns="http://www.w3.org/2000/svg"><g><path d="m354.48 209 13.32-128.23-127.62-.22 13.34 128.45z"/><path d="m338.02 367.4 13.34-128.4h-94.72l13.34 128.4z"/><path d="m368.18 367.4h96.56c26.94 0 47.26-20.38 47.26-47.4v-81h-130.48z"/><path d="m476.22 80.96-78.26-.14-13.32 128.18h127.36v-92.25c0-19.7-16.05-35.76-35.78-35.79z"/><path d="m84.422 30.719c15.347 84.516 8.703 44.883 29.608 178.281h109.33l-13.35-128.5-86.085-.148-9.986-54.993c-2.668-14.694-15.444-25.359-30.377-25.359h-68.562c-8.284 0-15 6.716-15 15s6.716 15 15 15c72.603 0 69.22-.399 69.422.719z"/><path d="m497 401.667c-415.738 0-397.149.077-397.176-.138-4.556-36.484-4.372-34.148-4.075-34.194 45.894-.239 98.152.065 144.071.065l-13.34-128.4h-107.75l15.375 98.134-38.491.2c-18.023.069-32.061 15.891-29.809 33.898l4.252 34.017c1.882 15.06 14.747 26.417 29.925 26.417h26.618c-18.801 36.505 7.827 80.334 49.067 80.334 41.22 0 67.875-43.811 49.066-80.333h142.867c-18.801 36.504 7.827 80.333 49.067 80.333 41.22 0 67.875-43.811 49.066-80.333h31.267c8.284 0 15-6.716 15-15s-6.716-15-15-15z"/></g></svg>