<?xml version="1.0" encoding="UTF-8" standalone="no"?>
<!-- Created with Inkscape (http://www.inkscape.org/) -->

<svg
   xmlns:dc="http://purl.org/dc/elements/1.1/"
   xmlns:cc="http://creativecommons.org/ns#"
   xmlns:rdf="http://www.w3.org/1999/02/22-rdf-syntax-ns#"
   xmlns:svg="http://www.w3.org/2000/svg"
   xmlns="http://www.w3.org/2000/svg"
   xmlns:sodipodi="http://sodipodi.sourceforge.net/DTD/sodipodi-0.dtd"
   xmlns:inkscape="http://www.inkscape.org/namespaces/inkscape"
   width="600px"
   height="250px"
   viewBox="0 0 600 250"
   version="1.1"
   id="SVGRoot"
   inkscape:version="0.92.4 (5da689c313, 2019-01-14)"
   sodipodi:docname="logo_fastshopping.svg">
  <defs
     id="defs127" />
  <sodipodi:namedview
     id="base"
     pagecolor="#ffffff"
     bordercolor="#666666"
     borderopacity="1.0"
     inkscape:pageopacity="0.0"
     inkscape:pageshadow="2"
     inkscape:zoom="0.85333333"
     inkscape:cx="54.492187"
     inkscape:cy="134.375"
     inkscape:document-units="px"
     inkscape:current-layer="g997"
     showgrid="false"
     inkscape:window-width="837"
     inkscape:window-height="442"
     inkscape:window-x="121"
     inkscape:window-y="338"
     inkscape:window-maximized="0"
     inkscape:snap-midpoints="false" />
  <metadata
     id="metadata130">
    <rdf:RDF>
      <cc:Work
         rdf:about="">
        <dc:format>image/svg+xml</dc:format>
        <dc:type
           rdf:resource="http://purl.org/dc/dcmitype/StillImage" />
        <dc:title></dc:title>
      </cc:Work>
    </rdf:RDF>
  </metadata>
  <g
     inkscape:label="Capa 1"
     inkscape:groupmode="layer"
     id="layer1"
     style="display:inline"
     sodipodi:insensitive="true">
    <g
       id="g997">
      <rect
         ry="0"
         y="64.742218"
         x="41.66053"
         height="119.12354"
         width="512.12708"
         id="rect140"
         style="opacity:1;fill:none;stroke:#060606;stroke-width:9.96922016;stroke-linecap:round;stroke-linejoin:bevel;stroke-miterlimit:4;stroke-dasharray:none;stroke-opacity:0.99549549;paint-order:fill markers stroke" />
      <g
         transform="matrix(0.14855957,0,0,0.14855957,62.750005,81.89062)"
         id="g961">
        <path
           inkscape:connector-curvature="0"
           d="M 354.48,209 367.8,80.77 240.18,80.55 253.52,209 Z"
           id="path949" />
        <path
           inkscape:connector-curvature="0"
           d="M 338.02,367.4 351.36,239 h -94.72 l 13.34,128.4 z"
           id="path951" />
        <path
           inkscape:connector-curvature="0"
           d="m 368.18,367.4 h 96.56 C 491.68,367.4 512,347.02 512,320 V 239 H 381.52 Z"
           id="path953" />
        <path
           inkscape:connector-curvature="0"
           d="M 476.22,80.96 397.96,80.82 384.64,209 H 512 v -92.25 c 0,-19.7 -16.05,-35.76 -35.78,-35.79 z"
           id="path955" />
        <path
           inkscape:connector-curvature="0"
           d="M 84.422,30.719 C 99.769,115.235 93.125,75.602 114.03,209 H 223.36 L 210.01,80.5 123.925,80.352 113.939,25.359 C 111.271,10.665 98.495,0 83.562,0 H 15 C 6.716,0 0,6.716 0,15 c 0,8.284 6.716,15 15,15 72.603,0 69.22,-0.399 69.422,0.719 z"
           id="path957" />
        <path
           inkscape:connector-curvature="0"
           d="m 497,401.667 c -415.738,0 -397.149,0.077 -397.176,-0.138 -4.556,-36.484 -4.372,-34.148 -4.075,-34.194 45.894,-0.239 98.152,0.065 144.071,0.065 L 226.48,239 H 118.73 l 15.375,98.134 -38.491,0.2 c -18.023,0.069 -32.061,15.891 -29.809,33.898 l 4.252,34.017 c 1.882,15.06 14.747,26.417 29.925,26.417 H 126.6 c -18.801,36.505 7.827,80.334 49.067,80.334 41.22,0 67.875,-43.811 49.066,-80.333 H 367.6 c -18.801,36.504 7.827,80.333 49.067,80.333 41.22,0 67.875,-43.811 49.066,-80.333 H 497 c 8.284,0 15,-6.716 15,-15 0,-8.284 -6.716,-15 -15,-15 z"
           id="path959" />
      </g>
      <flowRoot
         transform="translate(-4.6875,42.1875)"
         style="font-style:normal;font-weight:normal;font-size:40px;line-height:1.25;font-family:sans-serif;letter-spacing:0px;word-spacing:0px;fill:#000000;fill-opacity:1;stroke:none"
         id="flowRoot977"
         xml:space="preserve"><flowRegion
           id="flowRegion979"
           style="fill:#000000"><rect
             y="64.84375"
             x="140.625"
             height="120.70312"
             width="412.5"
             id="rect981"
             style="fill:#000000" /></flowRegion><flowPara
           style="font-style:normal;font-variant:normal;font-weight:bold;font-stretch:normal;font-size:48px;line-height:0;font-family:Verdana;-inkscape-font-specification:'Verdana Bold';text-align:center;letter-spacing:0px;text-anchor:middle;fill:#000000"
           id="flowPara983">Fast Shopping</flowPara></flowRoot>    </g>
  </g>
</svg>
